<?xml version="1.0" encoding="utf-8"?>
<!-- Generator: Adobe Illustrator 18.0.0, SVG Export Plug-In . SVG Version: 6.00 Build 0)  -->
<!DOCTYPE svg PUBLIC "-//W3C//DTD SVG 1.1//EN" "http://www.w3.org/Graphics/SVG/1.1/DTD/svg11.dtd">
<svg version="1.1" id="Layer_1" xmlns="http://www.w3.org/2000/svg" xmlns:xlink="http://www.w3.org/1999/xlink" x="0px" y="0px"
	 viewBox="0 0 427 38" enable-background="new 0 0 427 38" xml:space="preserve">
<g>
	<g>
		<g>
			<path fill="#2DA09A" d="M0,0v35.1h34.8V0H0z M32.3,32.6H2.5V2.5h29.8V32.6z"/>
		</g>
		<g>
			<rect x="4.9" y="5" fill="#2DA09A" width="6.6" height="6.7"/>
		</g>
		<g>
			<rect x="14.1" y="5" fill="#2DA09A" width="6.6" height="6.7"/>
		</g>
		<g>
			<rect x="23.2" y="5" fill="#2DA09A" width="6.6" height="6.7"/>
		</g>
		<g>
			<rect x="4.9" y="23.4" fill="#2DA09A" width="6.6" height="6.7"/>
		</g>
		<g>
			<rect x="4.9" y="14.2" fill="#2DA09A" width="6.6" height="6.7"/>
		</g>
		<g>
			<rect x="14.1" y="23.4" fill="#2DA09A" width="6.6" height="6.7"/>
		</g>
		<g>
			<rect x="14.1" y="14.2" fill="#2DA09A" width="6.6" height="6.7"/>
		</g>
		<g>
			<rect x="23.2" y="23.4" fill="#2DA09A" width="6.6" height="6.7"/>
		</g>
		<g>
			<rect x="23.2" y="14.2" fill="#2DA09A" width="6.6" height="6.7"/>
		</g>
	</g>
	<g>
		<g enable-background="new    ">
			<path fill="#2DA09A" d="M53.8,9.5c-1.9,0-3.4,0.7-4.5,2.2c-1.1,1.5-1.6,3.5-1.6,6.1c0,5.4,2,8.1,6,8.1c1.7,0,3.7-0.4,6.1-1.3v4.3
				c-2,0.8-4.2,1.2-6.6,1.2c-3.5,0-6.2-1.1-8-3.2c-1.9-2.1-2.8-5.2-2.8-9.2c0-2.5,0.5-4.7,1.4-6.6c0.9-1.9,2.2-3.4,3.9-4.4
				c1.7-1,3.7-1.5,6-1.5c2.3,0,4.7,0.6,7,1.7l-1.6,4.2c-0.9-0.4-1.8-0.8-2.7-1.1C55.5,9.7,54.6,9.5,53.8,9.5z"/>
			<path fill="#2DA09A" d="M64.4,6.5c0-1.6,0.9-2.5,2.7-2.5s2.7,0.8,2.7,2.5c0,0.8-0.2,1.4-0.7,1.8C68.7,8.8,68,9,67.1,9
				C65.3,9,64.4,8.1,64.4,6.5z M69.6,29.8h-5V11.3h5V29.8z"/>
			<path fill="#2DA09A" d="M82.6,26.1c0.9,0,1.9-0.2,3.2-0.6v3.8c-1.2,0.6-2.8,0.8-4.6,0.8c-2,0-3.5-0.5-4.4-1.5
				c-0.9-1-1.4-2.6-1.4-4.6v-8.9H73v-2.1l2.8-1.7l1.4-3.9h3.2v4h5.1v3.8h-5.1V24c0,0.7,0.2,1.3,0.6,1.6C81.5,26,82,26.1,82.6,26.1z"
				/>
			<path fill="#2DA09A" d="M86.9,11.3h5.5l3.5,10.4c0.3,0.9,0.5,2,0.6,3.2h0.1c0.1-1.1,0.4-2.2,0.7-3.2l3.4-10.4h5.4l-7.8,20.9
				c-0.7,1.9-1.7,3.4-3.1,4.3c-1.3,1-2.9,1.4-4.6,1.4c-0.9,0-1.7-0.1-2.5-0.3v-4c0.6,0.1,1.3,0.2,2,0.2c0.9,0,1.7-0.3,2.3-0.8
				c0.7-0.5,1.2-1.4,1.6-2.5l0.3-0.9L86.9,11.3z"/>
			<path fill="#2DA09A" d="M123.3,23.1c0,2.2-0.8,3.9-2.3,5.2c-1.6,1.3-3.7,1.9-6.5,1.9c-2.6,0-4.8-0.5-6.8-1.5v-4.8
				c1.6,0.7,3,1.2,4.1,1.5c1.1,0.3,2.2,0.4,3.1,0.4c1.1,0,2-0.2,2.6-0.6c0.6-0.4,0.9-1.1,0.9-1.9c0-0.5-0.1-0.9-0.4-1.3
				c-0.3-0.4-0.6-0.7-1.2-1.1c-0.5-0.3-1.5-0.9-3.1-1.6c-1.5-0.7-2.6-1.4-3.3-2c-0.7-0.6-1.3-1.4-1.8-2.2c-0.4-0.9-0.7-1.8-0.7-3
				c0-2.1,0.7-3.8,2.2-5.1c1.4-1.2,3.4-1.8,6-1.8c1.2,0,2.4,0.1,3.6,0.4s2.3,0.7,3.6,1.3l-1.6,4c-1.3-0.5-2.3-0.9-3.2-1.1
				c-0.8-0.2-1.7-0.3-2.5-0.3c-1,0-1.7,0.2-2.2,0.7c-0.5,0.5-0.8,1-0.8,1.8c0,0.5,0.1,0.8,0.3,1.2c0.2,0.3,0.5,0.7,1,1
				c0.5,0.3,1.5,0.9,3.2,1.7c2.2,1.1,3.8,2.2,4.6,3.3C122.9,20.2,123.3,21.5,123.3,23.1z"/>
			<path fill="#2DA09A" d="M147.6,17.5c0,4-1.1,7.1-3.4,9.2c-2.3,2.1-5.5,3.2-9.8,3.2h-6.8V5.6h7.5c3.9,0,7,1,9.1,3.1
				C146.5,10.8,147.6,13.7,147.6,17.5z M142.3,17.6c0-5.2-2.3-7.8-6.8-7.8h-2.7v15.8h2.2C139.8,25.6,142.3,22.9,142.3,17.6z"/>
			<path fill="#2DA09A" d="M171.9,29.8h-5.8l-6.3-10.2l-2.2,1.6v8.7h-5.1V5.6h5.1v11.1l2-2.9l6.5-8.2h5.7l-8.4,10.7L171.9,29.8z"/>
		</g>
		<g enable-background="new    ">
			<path fill="#2DA09A" d="M397,21.3h-9.8l-3.4,8.6H382l9.7-24.4h1.1l9.5,24.4h-1.9L397,21.3z M387.8,19.7h8.6l-3.3-8.7
				c-0.3-0.7-0.6-1.6-1-2.9c-0.3,1.1-0.6,2-1,2.9L387.8,19.7z"/>
			<path fill="#2DA09A" d="M420.1,12.5c0,2.3-0.8,4.1-2.4,5.4c-1.6,1.3-3.8,1.9-6.7,1.9h-3.7v10h-1.7V5.6h5.9
				C417.2,5.6,420.1,7.9,420.1,12.5z M407.3,18.3h3.3c2.7,0,4.7-0.5,5.9-1.4c1.2-0.9,1.8-2.4,1.8-4.4c0-1.9-0.6-3.3-1.7-4.2
				c-1.1-0.9-2.9-1.4-5.3-1.4h-4V18.3z"/>
			<path fill="#2DA09A" d="M425.3,29.8V5.6h1.7v24.3H425.3z"/>
		</g>
		<g enable-background="new    ">
			<path fill="#2DA09A" d="M187,29.8V5.6h2.8v21.7h10.6v2.6H187z"/>
			<path fill="#2DA09A" d="M203.8,6.7c0-0.6,0.2-1.1,0.5-1.4c0.3-0.3,0.7-0.4,1.2-0.4c0.4,0,0.8,0.1,1.1,0.4
				c0.3,0.3,0.5,0.8,0.5,1.4s-0.2,1.1-0.5,1.4c-0.3,0.3-0.7,0.5-1.1,0.5c-0.5,0-0.8-0.2-1.2-0.5C204,7.8,203.8,7.3,203.8,6.7z
				 M206.8,29.8H204V11.6h2.7V29.8z"/>
			<path fill="#2DA09A" d="M224.9,29.8V18.1c0-1.5-0.3-2.6-1-3.3s-1.7-1.1-3.1-1.1c-1.9,0-3.3,0.5-4.1,1.5c-0.9,1-1.3,2.7-1.3,5.1
				v9.5h-2.7V11.6h2.2l0.4,2.5h0.1c0.6-0.9,1.3-1.6,2.4-2.1c1-0.5,2.1-0.7,3.4-0.7c2.2,0,3.8,0.5,4.9,1.6c1.1,1.1,1.6,2.7,1.6,5.1
				v11.9H224.9z"/>
			<path fill="#2DA09A" d="M235.9,20.5c0.5-0.7,1.2-1.6,2.2-2.7l5.8-6.2h3.2l-7.3,7.8l7.8,10.4h-3.3l-6.4-8.6l-2.1,1.8v6.8h-2.7V4
				h2.7v13.7c0,0.6,0,1.5-0.1,2.8H235.9z"/>
			<path fill="#2DA09A" d="M258.5,30.2c-2.7,0-4.8-0.8-6.3-2.5c-1.5-1.6-2.3-3.9-2.3-6.8c0-2.9,0.7-5.3,2.1-7
				c1.4-1.7,3.4-2.6,5.8-2.6c2.3,0,4,0.7,5.4,2.2c1.3,1.5,2,3.5,2,5.9v1.7h-12.4c0.1,2.1,0.6,3.8,1.6,4.9c1,1.1,2.4,1.7,4.3,1.7
				c1.9,0,3.9-0.4,5.8-1.2V29c-1,0.4-1.9,0.7-2.7,0.9C260.8,30.1,259.8,30.2,258.5,30.2z M257.8,13.6c-1.4,0-2.6,0.5-3.5,1.4
				c-0.9,1-1.4,2.3-1.5,4h9.4c0-1.7-0.4-3.1-1.2-4C260.3,14.1,259.2,13.6,257.8,13.6z"/>
			<path fill="#2DA09A" d="M282.1,27.4h-0.1c-1.3,1.8-3.1,2.8-5.7,2.8c-2.4,0-4.2-0.8-5.5-2.4c-1.3-1.6-2-3.9-2-6.9s0.7-5.3,2-7
				c1.3-1.7,3.1-2.5,5.5-2.5c2.4,0,4.3,0.9,5.6,2.7h0.2l-0.1-1.3l-0.1-1.3V4h2.7v25.8h-2.2L282.1,27.4z M276.6,27.9
				c1.9,0,3.2-0.5,4.1-1.5s1.3-2.7,1.3-5v-0.6c0-2.6-0.4-4.4-1.3-5.5c-0.8-1.1-2.2-1.7-4.1-1.7c-1.6,0-2.8,0.6-3.7,1.9
				c-0.8,1.3-1.3,3-1.3,5.3c0,2.3,0.4,4.1,1.3,5.3C273.8,27.3,275,27.9,276.6,27.9z"/>
			<path fill="#2DA09A" d="M318.8,17.5c0,4-1.1,7.1-3.2,9.2c-2.2,2.1-5.3,3.2-9.3,3.2h-6.7V5.6h7.4c3.7,0,6.6,1,8.7,3.1
				C317.8,10.8,318.8,13.7,318.8,17.5z M315.9,17.6c0-3.2-0.8-5.5-2.4-7.2c-1.6-1.6-3.9-2.4-7-2.4h-4.1v19.4h3.4
				c3.3,0,5.8-0.8,7.5-2.5C315,23.3,315.9,20.8,315.9,17.6z"/>
			<path fill="#2DA09A" d="M334.9,29.8l-0.5-2.6h-0.1c-0.9,1.1-1.8,1.9-2.7,2.3c-0.9,0.4-2,0.6-3.3,0.6c-1.8,0-3.2-0.5-4.2-1.4
				s-1.5-2.3-1.5-4c0-3.7,2.9-5.6,8.7-5.8l3.1-0.1v-1.1c0-1.4-0.3-2.5-0.9-3.2c-0.6-0.7-1.6-1-2.9-1c-1.5,0-3.2,0.5-5.1,1.4
				l-0.8-2.1c0.9-0.5,1.9-0.9,2.9-1.1c1.1-0.3,2.1-0.4,3.2-0.4c2.1,0,3.7,0.5,4.8,1.4s1.6,2.5,1.6,4.6v12.4H334.9z M328.7,27.9
				c1.7,0,3-0.5,4-1.4c1-0.9,1.5-2.3,1.5-3.9v-1.6l-2.7,0.1c-2.2,0.1-3.7,0.4-4.7,1c-1,0.6-1.4,1.5-1.4,2.8c0,1,0.3,1.8,0.9,2.3
				C326.8,27.6,327.6,27.9,328.7,27.9z"/>
			<path fill="#2DA09A" d="M348.3,27.9c0.5,0,0.9,0,1.4-0.1c0.4-0.1,0.8-0.1,1.1-0.2v2.1c-0.3,0.1-0.7,0.3-1.3,0.4
				c-0.6,0.1-1.1,0.1-1.6,0.1c-3.5,0-5.2-1.9-5.2-5.6V13.8h-2.6v-1.3l2.6-1.1l1.2-3.9h1.6v4.2h5.2v2.1h-5.2v10.7
				c0,1.1,0.3,1.9,0.8,2.5C346.7,27.6,347.4,27.9,348.3,27.9z"/>
			<path fill="#2DA09A" d="M365.5,29.8l-0.5-2.6h-0.1c-0.9,1.1-1.8,1.9-2.7,2.3c-0.9,0.4-2,0.6-3.3,0.6c-1.8,0-3.2-0.5-4.2-1.4
				c-1-0.9-1.5-2.3-1.5-4c0-3.7,2.9-5.6,8.7-5.8l3.1-0.1v-1.1c0-1.4-0.3-2.5-0.9-3.2c-0.6-0.7-1.6-1-2.9-1c-1.5,0-3.2,0.5-5.1,1.4
				l-0.8-2.1c0.9-0.5,1.9-0.9,2.9-1.1c1.1-0.3,2.1-0.4,3.2-0.4c2.1,0,3.7,0.5,4.8,1.4s1.6,2.5,1.6,4.6v12.4H365.5z M359.3,27.9
				c1.7,0,3-0.5,4-1.4c1-0.9,1.5-2.3,1.5-3.9v-1.6L362,21c-2.2,0.1-3.7,0.4-4.7,1c-1,0.6-1.4,1.5-1.4,2.8c0,1,0.3,1.8,0.9,2.3
				C357.4,27.6,358.2,27.9,359.3,27.9z"/>
		</g>
	</g>
</g>
</svg>
