<?xml version="1.0" encoding="utf-8"?>
<!-- Generator: Adobe Illustrator 16.0.4, SVG Export Plug-In . SVG Version: 6.00 Build 0)  -->
<!DOCTYPE svg PUBLIC "-//W3C//DTD SVG 1.1//EN" "http://www.w3.org/Graphics/SVG/1.1/DTD/svg11.dtd">
<svg version="1.1" id="Layer_1" xmlns="http://www.w3.org/2000/svg" xmlns:xlink="http://www.w3.org/1999/xlink" x="0px" y="0px"
	 width="444px" height="51px" viewBox="0 0 444 51" enable-background="new 0 0 444 51" xml:space="preserve">
<g>
	<path fill="#939F5B" d="M5.698,7v34.758h34.758V7H5.698z M37.986,39.289H8.167V9.469h29.819V39.289z"/>
	<rect x="10.636" y="11.938" fill="#939F5B" width="6.648" height="6.648"/>
	<rect x="19.753" y="11.938" fill="#939F5B" width="6.647" height="6.648"/>
	<rect x="28.87" y="11.938" fill="#939F5B" width="6.647" height="6.648"/>
	<rect x="10.636" y="30.172" fill="#939F5B" width="6.648" height="6.648"/>
	<rect x="10.636" y="21.056" fill="#939F5B" width="6.648" height="6.647"/>
	<rect x="19.753" y="30.172" fill="#939F5B" width="6.647" height="6.648"/>
	<rect x="19.753" y="21.056" fill="#939F5B" width="6.647" height="6.647"/>
	<rect x="28.87" y="30.172" fill="#939F5B" width="6.647" height="6.648"/>
	<rect x="28.87" y="21.056" fill="#939F5B" width="6.647" height="6.647"/>
</g>
<g>
	<text transform="matrix(1 0 0 1 46.2188 36.5649)" fill="#939F5B" font-family="'OpenSans-Bold'" font-size="33.6849">CitySDK</text>
	<text transform="matrix(1 0 0 1 387.7012 36.5645)" fill="#939F5B" font-family="'OpenSans-Light'" font-size="33.6849">API</text>
	<text transform="matrix(1 0 0 1 189.3682 36.5645)" fill="#939F5B" font-family="'OpenSans'" font-size="33.6849">Linked Data</text>
</g>
</svg>
