<?xml version="1.0" encoding="utf-8"?>
<!-- Generator: Adobe Illustrator 18.0.0, SVG Export Plug-In . SVG Version: 6.00 Build 0)  -->
<!DOCTYPE svg PUBLIC "-//W3C//DTD SVG 1.1//EN" "http://www.w3.org/Graphics/SVG/1.1/DTD/svg11.dtd">
<svg version="1.1" id="Layer_1" xmlns="http://www.w3.org/2000/svg" xmlns:xlink="http://www.w3.org/1999/xlink" x="0px" y="0px"
	 viewBox="0 0 16 16" enable-background="new 0 0 16 16" xml:space="preserve">
<path fill-rule="evenodd" clip-rule="evenodd" fill="#FFFFFF" d="M8,0C3.6,0,0,3.7,0,8.2c0,3.6,2.3,6.7,5.5,7.8
	C5.9,16.1,6,15.8,6,15.6c0-0.2,0-0.7,0-1.4c-2.2,0.5-2.7-1.1-2.7-1.1c-0.4-0.9-0.9-1.2-0.9-1.2c-0.7-0.5,0.1-0.5,0.1-0.5
	c0.8,0.1,1.2,0.8,1.2,0.8c0.7,1.3,1.9,0.9,2.3,0.7c0.1-0.5,0.3-0.9,0.5-1.1c-1.8-0.2-3.6-0.9-3.6-4.1c0-0.9,0.3-1.6,0.8-2.2
	c-0.1-0.2-0.4-1,0.1-2.2c0,0,0.7-0.2,2.2,0.8C6.6,4.1,7.3,4,8,4c0.7,0,1.4,0.1,2,0.3c1.5-1.1,2.2-0.8,2.2-0.8c0.4,1.1,0.2,2,0.1,2.2
	c0.5,0.6,0.8,1.3,0.8,2.2c0,3.2-1.9,3.8-3.7,4c0.3,0.3,0.5,0.8,0.5,1.5c0,1.1,0,2,0,2.3c0,0.2,0.1,0.5,0.6,0.4
	c3.2-1.1,5.5-4.2,5.5-7.8C16,3.7,12.4,0,8,0z"/>
</svg>
